<?xml version="1.0" encoding="UTF-8" standalone="no"?>
<!-- Created with Inkscape (http://www.inkscape.org/) -->

<svg
   xmlns:dc="http://purl.org/dc/elements/1.1/"
   xmlns:cc="http://creativecommons.org/ns#"
   xmlns:rdf="http://www.w3.org/1999/02/22-rdf-syntax-ns#"
   xmlns:svg="http://www.w3.org/2000/svg"
   xmlns="http://www.w3.org/2000/svg"
   xmlns:sodipodi="http://sodipodi.sourceforge.net/DTD/sodipodi-0.dtd"
   xmlns:inkscape="http://www.inkscape.org/namespaces/inkscape"
   width="800"
   height="800"
   id="svg2"
   version="1.1"
   inkscape:version="0.48.5 r10040"
   sodipodi:docname="charitea_logo.svg">
  <title
     id="title3009">Charitea Logo</title>
  <defs
     id="defs4" />
  <sodipodi:namedview
     id="base"
     pagecolor="#ffffff"
     bordercolor="#666666"
     borderopacity="1.0"
     inkscape:pageopacity="0.0"
     inkscape:pageshadow="2"
     inkscape:zoom="0.7"
     inkscape:cx="289.3516"
     inkscape:cy="335.87177"
     inkscape:document-units="px"
     inkscape:current-layer="layer1"
     showgrid="false"
     fit-margin-top="0"
     fit-margin-left="0"
     fit-margin-right="0"
     fit-margin-bottom="0"
     inkscape:window-width="1920"
     inkscape:window-height="1018"
     inkscape:window-x="-8"
     inkscape:window-y="-8"
     inkscape:window-maximized="1" />
  <metadata
     id="metadata7">
    <rdf:RDF>
      <cc:Work
         rdf:about="">
        <dc:format>image/svg+xml</dc:format>
        <dc:type
           rdf:resource="http://purl.org/dc/dcmitype/StillImage" />
        <dc:title>Charitea Logo</dc:title>
        <dc:date>2014-12-29</dc:date>
        <dc:creator>
          <cc:Agent>
            <dc:title>Philip Gillißen</dc:title>
          </cc:Agent>
        </dc:creator>
        <dc:rights>
          <cc:Agent>
            <dc:title>Charitea</dc:title>
          </cc:Agent>
        </dc:rights>
        <dc:source>http://www.lemon-aid.de/wp-content/uploads/2013/04/Charitea_logo.jpg</dc:source>
        <dc:subject>
          <rdf:Bag>
            <rdf:li>charitea</rdf:li>
          </rdf:Bag>
        </dc:subject>
      </cc:Work>
    </rdf:RDF>
  </metadata>
  <g
     inkscape:label="Ebene 1"
     inkscape:groupmode="layer"
     id="layer1"
     transform="translate(-47.683009,244.42611)">
    <path
       style="fill:#000000"
       d="m 155.90591,221.85289 c -20.45848,-5.09811 -35.76221,-20.98333 -42.06119,-43.65936 -2.28432,-8.22346 -2.06911,-28.77242 0.39717,-37.92368 6.89729,-25.59265 23.6391,-43.14064 45.20396,-47.38074 12.13094,-2.3852 23.11412,-0.003 35.03941,7.59927 3.02336,1.92741 5.75209,3.34672 6.06387,3.15403 0.31178,-0.19269 1.81989,-2.94047 3.35136,-6.10618 2.62178,-5.41948 2.92755,-5.74181 5.23255,-5.51599 l 2.44805,0.23985 0.51646,10.48953 c 0.28405,5.76924 0.78212,17.11608 1.10684,25.21521 l 0.59039,14.72568 -2.76069,0 c -2.75011,0 -2.76762,-0.024 -4.56742,-6.25337 -2.95411,-10.22463 -9.24079,-22.07261 -14.60031,-27.51597 -15.29664,-15.53599 -37.56519,-13.29664 -49.36792,4.96449 -5.45328,8.43728 -8.28402,20.36931 -9.25237,39.00036 -1.59255,30.64044 6.75361,52.65795 22.81634,60.1904 12.8675,6.03409 29.85977,3.77998 40.33942,-5.35122 6.3836,-5.56221 11.88565,-16.34883 14.34327,-28.11962 0.39816,-1.90697 0.85819,-2.21894 3.27202,-2.21894 3.39188,0 3.4481,0.43978 1.19557,9.35185 -4.71053,18.63702 -16.45983,31.07424 -33.45421,35.41292 -6.38217,1.62937 -18.68617,1.4873 -25.85257,-0.29852 z m 175.88443,-0.68475 c -6.0208,-2.15528 -8.91756,-4.58885 -11.32888,-9.51742 -1.75376,-3.58457 -2.09787,-5.23235 -1.80732,-8.65456 1.30936,-15.42229 16.80165,-24.65313 50.54165,-30.11444 l 2.69245,-0.43582 -0.27179,-8.75379 c -0.25941,-8.35517 -0.3839,-8.89487 -2.73366,-11.85187 -3.74549,-4.71342 -9.00109,-6.99864 -15.99198,-6.95359 -6.17613,0.0398 -10.93493,1.54706 -14.01232,4.43812 -2.30412,2.1646 -2.26745,3.46104 0.21175,7.48626 3.30533,5.36651 2.49002,10.56852 -2.02211,12.90183 -3.98096,2.05864 -7.72358,1.57163 -11.00048,-1.43141 -5.70416,-5.22748 -4.2403,-13.92717 3.48816,-20.73004 7.60112,-6.69076 16.80243,-9.34307 30.29398,-8.73233 12.08127,0.5469 19.28079,4.10881 23.7819,11.76592 l 2.23693,3.80537 0.40345,26.22382 c 0.36977,24.03511 0.53129,26.41246 1.93531,28.48399 2.74558,4.05092 8.83198,6.03083 15.4763,5.03445 7.06918,-1.06009 6.7954,0.23411 6.79197,-32.10639 -0.003,-27.00409 -0.0845,-28.57642 -1.61415,-31.08526 -1.95733,-3.21032 -4.37504,-4.21604 -10.13522,-4.21604 l -4.38535,0 0,-2.80873 c 0,-3.46041 -0.25397,-3.39564 15.93602,-4.06463 l 12.30502,-0.50845 0.0299,15.59248 0.0299,15.59249 2.81306,-7.18744 c 6.89303,-17.61184 14.53774,-24.64111 25.78424,-23.70846 4.74476,0.39347 7.55883,1.94799 10.3894,5.73924 2.362,3.16363 2.71758,11.3029 0.65838,15.07058 -3.13169,5.73003 -11.52001,6.1594 -14.32596,0.73331 -1.48376,-2.86928 -1.46435,-8.59467 0.0381,-11.22284 1.63132,-2.85368 1.50514,-3.22755 -1.08926,-3.22755 -5.45473,0 -13.65442,9.46281 -16.9968,19.61507 -3.87705,11.77621 -4.89869,18.24827 -4.90455,31.07012 -0.003,6.80348 0.36128,13.0437 0.81073,13.88349 1.0808,2.0195 5.60837,3.19979 12.29552,3.20531 l 5.4465,0.005 0,2.85093 0,2.85093 -31.80783,-0.22855 -31.80782,-0.22855 -2.19102,-2.01722 c -1.20506,-1.10947 -2.88965,-3.57116 -3.74354,-5.47043 l -1.55252,-3.45321 -4.94541,4.47534 c -7.68314,6.95283 -12.09509,8.70431 -22.79548,9.04945 -7.03975,0.22706 -9.71379,-0.0137 -12.92706,-1.16398 z m 23.43859,-6.39359 c 2.63296,-0.89714 5.45858,-2.83823 8.51567,-5.84993 6.29826,-6.20476 8.0035,-10.96425 8.0035,-22.3385 l 0,-8.49148 -3.83271,0.5565 c -13.9271,2.02219 -26.43031,7.41031 -30.41862,13.10859 -2.06223,2.94639 -2.47516,4.36948 -2.69253,9.2792 -0.30328,6.85031 1.14564,10.40935 5.39288,13.2467 3.36573,2.24844 9.30129,2.44151 15.03181,0.48892 z m 266.24004,6.34634 c -12.3757,-4.27942 -21.63933,-14.40958 -25.00961,-27.34904 -1.54519,-5.9322 -1.52663,-18.5446 0.0371,-25.17777 2.81023,-11.92184 10.73192,-22.01937 21.14374,-26.95135 5.15198,-2.44046 5.96612,-2.58321 14.73254,-2.58321 8.77111,0 9.57856,0.14179 14.7461,2.58953 12.31608,5.83384 20.68583,20.3354 20.74288,35.93931 l 0.0137,3.83271 -28.67224,0 -28.67231,0 0.48986,4.23616 c 1.50073,12.97858 3.84021,18.72074 9.74501,23.91834 4.79291,4.21885 10.75515,6.08881 17.64944,5.5354 8.94409,-0.71795 16.67713,-5.72068 22.23787,-14.38638 1.40213,-2.18497 2.63877,-3.97267 2.74818,-3.97267 0.10941,0 1.33475,0.39595 2.723,0.87989 l 2.52402,0.87988 -1.28843,2.54938 c -4.51574,8.93511 -13.91832,17.19415 -22.6427,19.88883 -6.73282,2.07955 -17.49984,2.15875 -23.24826,0.17099 z m 28.59647,-48.28094 c 1.31426,-1.67076 1.67235,-3.28466 1.67235,-7.53655 0,-11.99653 -8.81007,-21.806 -19.58435,-21.806 -7.68567,0 -15.87719,6.65789 -18.68201,15.18418 -0.99828,3.03484 -2.79416,12.84949 -2.86888,15.67923 -0.009,0.33285 8.49046,0.60517 18.88728,0.60517 l 18.90326,0 1.67235,-2.12603 z m 34.76891,48.19523 c -5.56841,-1.97554 -10.78985,-7.24954 -12.13945,-12.26161 -3.57475,-13.27544 7.78258,-25.27602 29.9923,-31.69097 6.16688,-1.78121 9.50214,-2.48346 19.8549,-4.18053 l 2.62238,-0.42988 0,-8.07237 c 0,-8.75376 -0.67342,-10.90734 -4.56754,-14.60625 -6.5123,-6.18584 -20.86795,-6.68308 -27.67121,-0.95846 -2.99775,2.52245 -3.04398,3.49308 -0.35947,7.54968 3.57185,5.39736 2.28115,11.90599 -2.74527,13.8445 -3.10893,1.19898 -8.0608,0.33411 -10.33848,-1.80566 -6.30436,-5.92261 -3.0276,-16.81981 7.0534,-23.45729 7.3438,-4.83523 11.71672,-5.90682 24.10461,-5.90682 10.24851,0 11.17942,0.13398 15.73429,2.26456 5.66967,2.65203 8.75924,5.37371 11.16861,9.83874 1.66097,3.07821 1.76022,4.49868 2.14503,30.69978 0.35914,24.45612 0.55957,27.71027 1.82566,29.64028 0.78227,1.19242 2.38951,2.41079 3.5716,2.70748 1.91789,0.48136 3.02905,0.24085 7.51292,-1.62615 0.80374,-0.33468 1.66816,0.30283 2.57333,1.89792 1.34128,2.36359 1.32845,2.42622 -0.80689,3.92727 -4.30498,3.02627 -7.40577,4.1629 -11.35645,4.1629 -7.20154,0 -11.50814,-2.82705 -15.13453,-9.93496 l -1.98115,-3.8833 -4.7637,4.41034 c -2.62004,2.42567 -6.86878,5.44249 -9.4417,6.70403 -4.14474,2.03226 -5.68976,2.31893 -13.55376,2.51494 -7.14337,0.17807 -9.7392,-0.0851 -13.29943,-1.34817 z m 26.25101,-7.1457 c 4.41375,-2.26284 9.54103,-7.53314 11.80976,-12.139 1.5777,-3.20307 1.90723,-5.31505 2.13348,-13.67259 0.21189,-7.83027 0.0444,-9.88216 -0.80688,-9.87376 -0.59097,0.006 -4.34234,0.69372 -8.33643,1.52865 -14.63338,3.05896 -22.43073,7.29278 -25.76922,13.99216 -3.74396,7.51317 -2.00632,17.19678 3.73467,20.81255 3.48963,2.19788 12.33214,1.86541 17.23462,-0.64801 z m -489.41818,3.43805 c 0,-2.64732 0.16415,-2.82438 2.62238,-2.8286 5.33776,-0.009 8.72219,-1.52747 9.94881,-4.46319 1.54033,-3.68651 1.62486,-98.39722 0.0917,-102.77267 -1.45632,-4.15622 -4.52437,-5.99493 -10.6544,-6.38526 l -5.23607,-0.3334 0,-2.68249 c 0,-1.47537 0.27232,-2.84453 0.60516,-3.04259 0.33285,-0.19805 7.23173,-0.62436 15.33085,-0.94736 l 14.72568,-0.58727 0,30.34585 0,30.34584 4.87943,-4.80425 c 2.91268,-2.86781 7.05252,-5.87407 10.27083,-7.45843 5.00864,-2.46575 5.96551,-2.65419 13.47725,-2.65419 7.4523,0 8.42395,0.18728 12.40107,2.39022 4.90009,2.71416 8.29138,7.08758 10.86809,14.01552 1.55537,4.18187 1.73807,6.74884 2.13457,29.99025 0.23849,13.97931 0.71906,25.85736 1.06794,26.39566 0.8578,1.32355 5.86663,2.64226 10.05693,2.64776 3.38038,0.004 3.42926,0.0448 3.42926,2.8286 l 0,2.82411 -21.38249,0 -21.3825,0 0,-2.70916 0,-2.70916 4.87852,-0.50991 c 6.45599,-0.67478 7.80208,-1.51905 8.89535,-5.57913 1.21369,-4.50731 0.54771,-44.09662 -0.81522,-48.46109 -1.1927,-3.81932 -6.04183,-9.30831 -9.50347,-10.75749 -4.04398,-1.69297 -10.52979,-1.34635 -15.16091,0.81026 -4.63139,2.15673 -8.31223,6.01612 -11.49376,12.05134 l -2.21744,4.20637 -0.2496,21.54781 c -0.165,14.24459 0.0433,22.09514 0.61466,23.16269 1.00437,1.87667 5.42869,3.28833 10.32619,3.29476 3.38038,0.004 3.42927,0.0448 3.42927,2.8286 l 0,2.82411 -20.97906,0 -20.97905,0 0,-2.82411 z m 245.29356,0.10612 0,-2.718 6.11376,-0.39236 c 10.15541,-0.65173 9.57508,1.15616 9.86176,-30.72215 0.26107,-29.03017 -0.0436,-31.74768 -3.87924,-34.59237 -1.25391,-0.92997 -4.09422,-1.69459 -7.4637,-2.00924 l -5.43947,-0.50795 0,-2.60184 c 0,-2.37974 0.2583,-2.64455 3.02583,-3.10199 1.6642,-0.27507 8.56308,-0.50413 15.33084,-0.50902 l 12.30502,-0.009 0,35.01018 c 0,41.39542 -0.69934,38.40687 9.13521,39.03801 l 6.19564,0.39761 0,2.71799 0,2.71799 -22.59283,0 -22.59282,0 0,-2.71799 z m 64.55093,-0.10612 0,-2.8241 7.20946,0 c 7.19786,0 11.17787,-0.86286 12.32877,-2.67286 0.33508,-0.52697 0.61479,-24.97322 0.62159,-54.32499 0.0144,-62.0943 0.71825,-57.17878 -8.18695,-57.17371 -8.63625,0.005 -14.82442,4.99296 -22.69061,18.29 -2.51522,4.25175 -3.42579,6.93983 -5.07815,14.99117 -0.30038,1.46367 -0.91688,1.81549 -3.18132,1.81549 -2.7683,0 -2.80856,-0.0494 -2.79699,-3.42927 0.006,-1.8861 0.54582,-10.8728 1.19859,-19.97044 0.65277,-9.09765 1.19214,-16.81351 1.19859,-17.14635 0.006,-0.33284 21.97923,-0.60516 48.82839,-0.60516 l 48.81664,0 0,2.35647 c 0,2.48948 1.27101,23.0612 2.03546,32.94482 l 0.4525,5.84993 -2.84234,0 c -2.29898,0 -2.91391,-0.34708 -3.21617,-1.81549 -3.17728,-15.43214 -5.02682,-20.82491 -8.87075,-25.86462 -5.9077,-7.74533 -24.06365,-10.52528 -26.97727,-4.13061 -1.2199,2.67741 -1.32426,105.40579 -0.10938,107.67581 1.11798,2.08895 5.65943,3.19996 13.10241,3.20531 l 6.25338,0.005 0,2.8241 0,2.8241 -29.04792,0 -29.04793,0 0,-2.8241 z m 232.99871,1.56101 c -4.58707,-2.48891 -6.19253,-10.27505 -2.96475,-14.3785 4.79202,-6.09206 13.0188,-5.82362 16.90606,0.55164 2.75075,4.51144 1.57746,9.84406 -2.9495,13.40493 -2.54919,2.00521 -7.70883,2.20326 -10.99181,0.42193 z m 8.71881,-0.72508 c 3.43411,-1.43486 5.57648,-5.78395 4.8243,-9.79348 -0.6844,-3.64819 -4.56529,-6.78183 -8.3704,-6.75879 -9.07474,0.0549 -11.45207,12.92264 -3.06214,16.57413 3.19431,1.39023 3.22892,1.39012 6.60824,-0.0219 z m -7.55399,-7.89619 0.23706,-5.84993 2.58511,-0.25006 c 1.42181,-0.13753 3.32808,0.14757 4.23615,0.63355 2.01375,1.07771 2.19256,4.47804 0.29145,5.54194 -1.2748,0.71343 -1.2748,0.89018 0,2.83581 1.55527,2.37353 1.67026,2.93862 0.59831,2.93862 -0.4187,0 -1.40471,-1.0893 -2.19119,-2.42066 -0.78647,-1.33136 -1.89626,-2.42066 -2.46624,-2.42066 -0.61356,0 -1.03637,0.98749 -1.03637,2.42066 0,1.64431 -0.39949,2.42066 -1.24567,2.42066 -1.03023,0 -1.20468,-1.01176 -1.00861,-5.84993 z m 6.69216,-2.62238 c 0,-1.16066 -0.623,-1.68546 -2.21894,-1.86909 -1.92346,-0.22132 -2.21894,0.0276 -2.21894,1.86909 0,1.84151 0.29548,2.09041 2.21894,1.86909 1.59594,-0.18363 2.21894,-0.70843 2.21894,-1.86909 z m -9.2792,-60.82167 c -7.79307,-2.55658 -15.03399,-9.37733 -17.47579,-16.46174 -4.61491,-13.38903 1.30231,-27.51187 14.18724,-33.86138 3.4191,-1.68487 4.96461,-1.83856 20.90966,-2.07922 l 17.2176,-0.25988 -0.28459,16.80106 c -0.2783,16.42484 -0.33446,16.903 -2.50966,21.3542 -2.4857,5.08657 -7.51446,10.14729 -12.8007,12.88212 -2.66272,1.37754 -5.16431,1.87244 -10.36801,2.05111 -3.77219,0.12952 -7.76628,-0.0623 -8.87575,-0.42627 z M 480.4924,122.54569 c -4.86634,-3.82786 -4.89413,-10.33741 -0.0622,-14.57986 2.58332,-2.26818 3.34991,-2.52516 6.48034,-2.17231 8.66259,0.9764 11.95914,11.81485 5.08279,16.71124 -3.04311,2.16689 -8.77226,2.18728 -11.50089,0.0409 z"
       id="path3007"
       inkscape:connector-curvature="0" />
  </g>
</svg>
