<?xml version="1.0" encoding="UTF-8" standalone="no"?>
<!-- Created using Karbon14, part of koffice: http://www.koffice.org/karbon -->

<svg
   xmlns:dc="http://purl.org/dc/elements/1.1/"
   xmlns:cc="http://creativecommons.org/ns#"
   xmlns:rdf="http://www.w3.org/1999/02/22-rdf-syntax-ns#"
   xmlns:svg="http://www.w3.org/2000/svg"
   xmlns="http://www.w3.org/2000/svg"
   xmlns:sodipodi="http://sodipodi.sourceforge.net/DTD/sodipodi-0.dtd"
   xmlns:inkscape="http://www.inkscape.org/namespaces/inkscape"
   width="287.84"
   height="287.84"
   id="svg2"
   sodipodi:version="0.32"
   inkscape:version="0.48.5 r10040"
   sodipodi:docname="Club_mate_logo.svg"
   version="1.1"
   inkscape:export-filename="C:\Users\philip\AndroidStudioProjects\Matekarte\res\drawable-mdpi\drink_50fb3d16ce007c40fc00080d.png"
   inkscape:export-xdpi="15.008338"
   inkscape:export-ydpi="15.008338">
  <metadata
     id="metadata46">
    <rdf:RDF>
      <cc:Work
         rdf:about="">
        <dc:format>image/svg+xml</dc:format>
        <dc:type
           rdf:resource="http://purl.org/dc/dcmitype/StillImage" />
        <dc:title></dc:title>
      </cc:Work>
    </rdf:RDF>
  </metadata>
  <sodipodi:namedview
     inkscape:window-height="1018"
     inkscape:window-width="1920"
     inkscape:pageshadow="2"
     inkscape:pageopacity="1"
     borderopacity="1.0"
     bordercolor="#666666"
     pagecolor="#f8c400"
     id="base"
     inkscape:zoom="1.8737374"
     inkscape:cx="196.78163"
     inkscape:cy="223.07008"
     inkscape:window-x="-8"
     inkscape:window-y="-8"
     inkscape:current-layer="svg2"
     showgrid="false"
     fit-margin-top="0"
     fit-margin-left="0"
     fit-margin-right="0"
     fit-margin-bottom="0"
     inkscape:window-maximized="1" />
  <defs
     id="defs4" />
  <g
     id="g11"
     transform="matrix(0.46383501,0,0,-0.46383501,4.624577,537.31449)">
    <path
       inkscape:connector-curvature="0"
       d="m 450.72,574.056 0,5.832 c 0.576,-1.944 1.152,-3.816 1.728,-5.76 -0.576,0 -1.152,0 -1.728,-0.072 l 0,0 z m 0,42.84 c 4.752,0 10.872,1.872 14.112,0.216 0.144,-15.624 0.144,-27.288 -2.088,-43.632 9,0 13.464,0 22.464,0 -1.008,8.064 -2.088,26.568 -0.216,43.128 4.464,0 8.136,-1.296 11.16,-1.44 1.584,6.048 3.672,11.808 4.32,18 -18.216,0.144 -35.496,-0.648 -46.008,1.44 -1.44,-4.104 -2.664,-6.84 -3.744,-10.44 l 0,-7.272 0,0 z m 101.808,-1.008 c 0.072,5.688 -2.232,11.16 -3.672,18.576 -11.088,-1.44 -30.6,-0.504 -41.832,-1.296 -0.648,-23.688 -0.288,-35.64 0,-59.688 16.704,0 25.056,0 41.832,0 1.296,3.888 1.944,5.832 3.096,9.72 0.864,1.944 0.864,3.312 0.288,5.112 -9.288,-0.648 -16.416,-1.152 -27.216,-0.072 -0.864,2.808 -1.008,5.112 -0.144,7.776 9.576,0 14.4,0 23.976,0 2.016,5.544 -2.448,9.504 -3.168,15.552 -5.616,-1.152 -13.032,-0.864 -21.024,-0.072 -0.216,1.44 -0.432,2.232 -0.936,3.888 0,1.728 1.44,2.664 2.52,2.664 10.656,0 17.064,-0.936 26.28,-2.16 z m -101.808,8.28 0,-7.272 c -0.576,0 -1.224,0 -1.728,0.072 0.576,2.952 1.152,5.184 1.728,7.2 l 0,0 z m 0,-44.28 c -5.256,16.776 -11.592,32.976 -20.448,54.216 -4.032,0 -7.056,0 -10.08,0.072 l 0,-26.28 c 2.88,-3.168 3.888,-6.12 5.184,-10.8 0.36,-0.936 0.144,-2.088 -1.008,-2.232 -1.296,-0.072 -2.664,0.072 -4.176,0.216 l 0,-13.176 c 2.736,0 5.472,0.072 8.784,0.36 1.008,-2.736 1.512,-5.76 3.528,-8.28 7.416,0.072 11.304,-0.072 18.216,0.072 l 0,5.832 z m -30.528,54.288 0,-26.28 c -0.072,0.072 -0.144,0.216 -0.288,0.288 -1.944,-4.896 -5.112,-7.488 -5.04,-12.744 1.8,0.144 3.6,-0.144 5.328,-0.36 l 0,-13.176 c -3.456,0.072 -6.84,0.288 -11.376,0.288 -1.152,-3.384 -1.728,-5.04 -2.808,-8.424 -7.56,0.144 -11.304,0.288 -18.792,0.504 3.6,15.552 14.328,36.432 22.968,59.904 4.032,0 7.056,0 10.008,0 l 0,0 z m -191.448,-60.696 0,15.48 c 1.224,0.36 2.304,0.792 3.528,0.864 2.088,0.072 3.6,2.016 1.296,4.464 -1.296,1.296 -2.808,2.304 -4.824,2.952 l 0,13.32 c 0.36,0 0.72,0.072 1.152,0.144 5.112,0.792 6.84,7.2 0.144,9.288 -0.504,0.072 -0.936,0.144 -1.296,0.216 l 0,14.256 c 0.504,0.072 1.08,0.072 1.656,0.144 7.344,0.504 12.6,-2.376 16.056,-6.048 2.16,-2.304 3.312,-3.456 5.472,-5.76 4.248,-4.536 4.536,-8.64 1.368,-12.384 -2.736,-3.168 -4.104,-4.752 -6.336,-7.632 1.584,-3.168 3.744,-5.688 6.048,-7.56 4.968,-4.248 3.312,-8.64 1.008,-12.456 -5.76,-9.72 -14.904,-10.224 -25.272,-9.288 l 0,0 z m 35.712,14.472 c -0.36,0.432 -0.504,0.72 -0.792,1.152 2.592,5.904 3.96,8.856 6.696,14.472 11.304,0.144 17.064,0.072 28.44,-0.144 0.432,-0.72 0.432,-0.72 0.72,-1.152 -1.008,-5.112 -1.512,-7.632 -2.448,-12.744 0,0 -0.504,-1.296 -1.296,-1.296 -10.584,-0.144 -22.608,-0.576 -31.32,-0.288 l 0,0 z m 38.304,-13.968 c 2.088,16.2 9.864,38.664 13.536,59.688 5.112,-0.072 7.704,-0.072 12.816,-0.072 3.6,-9.936 5.4,-14.832 9,-24.624 0.648,-2.448 1.512,-0.792 2.088,0 3.456,10.008 5.184,14.976 8.568,24.984 3.744,0.216 5.616,0.216 9.36,0.36 2.376,0.144 3.456,-1.152 3.6,-2.232 3.312,-15.696 13.608,-37.44 18.576,-57.672 0.216,-0.576 -0.648,-1.008 -1.296,-0.936 -3.672,0.144 -13.68,-0.216 -19.224,0.504 -1.872,4.68 -2.448,18.072 -4.968,21.24 -2.736,-3.816 -5.688,-14.904 -9.288,-21.6 -3.744,0 -5.616,0 -9.36,0 -3.6,0 -3.384,4.392 -4.104,6.048 -2.232,5.112 -3.24,10.512 -6.048,14.616 -2.376,-6.912 -3.096,-13.176 -4.32,-20.304 -6.912,-0.216 -11.376,-1.08 -18.936,0 z m -226.728,60.12 c -2.592,0 -5.04,-0.144 -8.352,-1.872 -6.048,-3.096 -11.808,-5.616 -17.496,-13.536 -2.52,-3.528 -5.616,-9 -5.76,-15.408 l 0,-0.864 c 0.072,-3.384 1.008,-7.056 3.312,-10.8 4.464,-7.344 13.896,-14.04 24.696,-18.288 2.232,-0.864 3.096,-0.288 4.68,0 3.816,5.4 5.688,8.064 9.432,13.392 -5.472,1.872 -10.584,2.232 -16.2,7.632 -5.544,5.256 -8.712,11.016 -0.576,17.928 9.216,7.704 14.472,6.264 16.776,8.424 -4.176,5.328 -6.264,7.992 -10.512,13.392 l 0,0 z m 152.712,0.36 0,-14.256 c -1.512,0.144 -2.592,0.288 -4.392,0.504 -1.224,-3.168 -1.944,-6.048 -0.504,-10.008 1.512,-0.216 2.88,-0.36 4.896,-0.144 l 0,-13.32 c -1.368,0.432 -3.024,0.72 -4.896,0.864 -1.08,-2.448 -1.224,-5.976 -0.144,-9.648 2.016,-0.36 3.6,0.072 5.04,0.504 l 0,-15.48 c -1.368,0.144 -2.736,0.216 -4.104,0.432 -7.632,0.72 -12.024,0.864 -18.792,0.36 l -1.584,2.376 c 0.288,22.824 0.504,34.488 0.936,57.672 8.352,-1.44 15.552,-0.432 23.544,0.144 l 0,0 z M 91.872,634.32 c 2.376,-24.12 2.088,-48.312 0,-60.696 8.928,-1.368 24.48,0.288 35.712,0 1.368,5.256 5.328,13.104 6.336,17.352 -7.848,-0.792 -14.256,-1.872 -20.304,-0.792 0,17.136 0,25.704 0,42.84 -8.64,0.576 -13.032,0.792 -21.744,1.296 l 0,0 z m 47.592,-0.72 c 2.592,-21.312 0.504,-34.776 -1.296,-53.424 8.064,-2.88 13.608,-4.968 22.536,-6.84 5.688,3.456 8.856,5.112 14.76,6.84 0.36,-1.8 0.648,-2.952 1.296,-5.184 8.136,0.144 12.168,0.288 20.304,0.504 -1.08,18.144 -2.16,33.84 0.216,56.448 -0.432,0.864 -0.648,1.296 -0.648,1.296 -5.112,0.576 -9.864,0.864 -16.2,0.072 -1.584,-16.128 -2.304,-24.12 -3.888,-40.248 -0.216,-1.656 -0.936,-2.52 -1.872,-3.384 -4.176,0.216 -10.8,-2.088 -14.184,1.512 -0.288,17.64 0.216,25.56 -1.008,42.624 -6.912,0.504 -12.168,0.504 -20.016,-0.216 z"
       id="path13"
       style="fill:#0032fc;fill-rule:evenodd" />
    <path
       inkscape:connector-curvature="0"
       d="m 420.264,588.96 0,1.872 c 5.112,0.144 10.512,0.216 15.768,-0.144 -5.688,13.608 -8.496,20.448 -14.184,34.056 -0.648,0 -1.08,0.072 -1.584,0.072 l 0,1.728 0.936,-0.072 c 1.872,-0.144 2.448,-0.36 3.024,-1.8 6.912,-16.992 10.44,-25.416 17.352,-42.408 0.504,-1.224 -0.72,-1.656 -1.584,0 -1.008,2.304 -1.512,3.384 -2.592,5.688 -0.648,1.008 -1.512,1.152 -3.24,1.296 -4.896,-0.072 -9.576,-0.216 -13.896,-0.288 l 0,0 z m 122.4,36.072 c -0.072,0.72 -0.144,1.008 -0.216,1.728 -11.088,0.072 -16.56,0.144 -27.648,0.216 0.216,-19.152 -0.288,-28.656 0.648,-47.808 10.512,-0.864 17.712,-0.288 27.144,0.144 -0.288,0.72 -0.36,1.152 -0.576,1.872 -9.576,-0.36 -14.328,-0.216 -24.192,-0.072 -0.72,8.712 -0.36,13.032 -0.36,21.528 9.144,0 13.752,0 22.968,0 -0.072,0.72 -0.072,1.08 -0.072,1.728 -9.072,0 -13.608,0 -22.68,0 -1.152,8.28 -0.936,13.896 -0.792,20.808 10.296,-0.072 15.48,-0.072 25.776,-0.144 l 0,0 z m -69.696,-1.08 c -4.824,0.144 -7.272,0.216 -12.096,0.288 -0.792,0 -1.512,2.016 -0.648,2.16 2.736,0.216 4.104,0.432 6.84,0.72 9.648,-0.144 14.472,-0.216 24.048,-0.36 -0.936,-1.224 -1.368,-1.8 -2.304,-2.952 -4.968,0.072 -7.488,0.144 -12.384,0.144 -0.144,-17.208 -0.216,-25.776 -0.216,-42.984 -1.224,0 -1.872,0 -3.096,0 -0.072,17.208 -0.072,25.776 -0.144,42.984 z M 229.176,604.8 c 3.672,0 6.12,0.144 8.424,2.592 1.656,1.728 3.024,2.16 4.248,4.176 1.656,2.736 1.296,4.32 -0.648,7.56 -1.08,1.728 -2.016,2.376 -3.6,3.96 -2.736,2.592 -5.472,3.312 -8.28,3.312 l -0.144,-0.072 0,1.656 c 4.032,-0.288 7.272,-1.512 9.36,-3.312 2.448,-2.16 3.456,-3.096 4.752,-5.04 2.088,-3.168 2.736,-5.904 -0.36,-9.576 -2.664,-3.168 -4.896,-4.752 -8.856,-6.264 3.744,-2.952 6.84,-5.112 9.216,-9.288 2.088,-3.672 2.592,-8.352 -2.088,-10.872 -3.168,-1.728 -5.472,-2.448 -9.288,-2.448 l -2.736,0.072 0,1.512 c 2.664,-0.072 4.752,0.432 6.624,1.008 1.8,0.504 2.736,1.008 4.32,2.088 3.024,2.088 2.88,4.608 1.584,7.488 -0.648,1.512 -0.936,2.448 -2.088,3.672 -3.168,3.528 -6.552,4.608 -10.44,5.328 l 0,2.448 0,0 z m 191.088,21.744 0,-1.728 c -0.432,0 -0.864,0.072 -1.44,0.072 -5.256,-11.304 -8.64,-19.728 -14.328,-33.912 4.392,-0.36 9.864,-0.216 15.768,-0.144 l 0,-1.872 c -6.408,-0.216 -12.024,-0.288 -16.776,0.144 -1.368,-2.592 -2.448,-4.176 -4.032,-6.984 -0.792,-1.368 -2.088,-1.728 -1.152,0.432 7.704,17.784 10.512,26.064 19.224,44.352 1.08,-0.144 1.8,-0.216 2.736,-0.36 l 0,0 z m -108.792,-45.72 c 0.864,-0.144 1.296,-0.216 2.16,-0.36 4.176,15.624 6.264,23.472 10.44,39.168 6.264,-14.112 10.224,-21.312 15.552,-36 0.576,-1.584 1.44,-0.936 1.8,0 4.32,13.032 6.48,19.584 10.944,32.76 0.36,1.152 0.72,2.16 1.584,2.808 5.4,-15.336 8.136,-23.04 13.608,-38.376 0.936,0 1.368,-0.072 2.376,-0.144 -4.968,11.232 -9.792,26.136 -16.344,43.56 -5.328,-14.688 -7.992,-22.032 -13.392,-36.648 -6.552,14.688 -9.864,22.032 -16.416,36.792 -4.896,-17.424 -7.344,-26.136 -12.312,-43.56 l 0,0 z m -36.936,16.272 c -1.152,-0.504 -1.368,-1.656 -0.216,-1.44 6.84,0.288 11.16,-0.648 17.208,0.576 -1.44,1.008 -9.432,1.296 -16.992,0.864 z m -58.32,28.8 c -0.36,-8.208 -0.432,-12.24 -0.792,-20.52 5.184,-0.216 7.704,-0.576 12.888,-0.576 l 0.864,0 0,-2.448 c -0.432,0.072 -0.936,0.144 -1.368,0.216 -4.248,0.648 -6.984,0.648 -11.88,0.504 -0.72,-7.704 -0.36,-11.448 -0.216,-19.296 4.824,-0.432 7.272,-0.576 12.096,-1.008 0.432,0 0.936,0 1.368,0 l 0,-1.512 c -5.688,0 -9.36,0.072 -15.696,0.144 -0.072,18.288 -0.144,27.36 -0.144,45.72 5.832,0.936 9.432,1.296 15.336,0.936 0.144,-0.072 0.36,-0.072 0.504,-0.072 l 0,-1.656 c -5.112,-0.144 -7.704,-0.216 -12.96,-0.432 l 0,0 z m -64.44,1.08 c -1.08,-0.072 -1.584,-0.144 -2.592,-0.216 0.792,-12.096 0.288,-21.888 -0.576,-36.576 -0.144,-2.952 0.72,-5.04 2.952,-5.832 2.52,-0.864 3.672,-1.584 6.264,-2.304 1.872,-0.504 2.88,-0.36 4.752,0 7.56,1.224 11.232,1.8 18.936,3.096 2.304,0.432 3.672,0 3.96,-1.008 0.504,-2.232 2.088,-1.224 2.088,0.216 0,14.472 -0.288,25.56 1.584,41.832 0.072,0.72 -1.44,1.224 -1.584,0.576 -2.088,-8.712 -1.872,-22.968 -1.872,-40.032 -9.648,-0.648 -13.392,-1.8 -22.248,-3.24 -1.584,-0.288 -3.816,-0.792 -6.552,0.504 -3.24,1.512 -6.48,3.168 -6.408,4.752 0.72,15.048 1.584,27.144 1.296,38.232 l 0,0 z m -49.68,-1.584 c 1.152,0 1.728,0 2.88,0 -0.072,-16.92 -0.144,-25.416 -0.288,-42.264 7.704,-0.864 12.168,-0.576 19.296,-0.36 -0.648,-0.792 -1.008,-1.152 -1.584,-2.088 -8.136,0.288 -12.168,0.36 -20.304,0.504 0,17.712 0,26.496 0,44.208 l 0,0 z m -28.368,-0.216 c -2.016,-0.504 -3.24,-0.288 -4.968,-1.368 -5.832,-3.384 -7.776,-5.904 -12.024,-10.656 -4.968,-5.544 -4.248,-13.68 -0.648,-18.504 6.336,-8.424 10.8,-10.008 17.136,-13.104 0.432,0.648 0.576,0.936 1.008,1.584 -7.344,1.512 -11.952,6.552 -14.976,10.728 -4.032,5.616 -5.4,11.016 -0.936,17.712 4.248,6.336 9.072,8.136 15.408,13.608 z"
       id="path15"
       style="fill:#ffcc00;fill-rule:evenodd" />
  </g>
  <g
     id="g17"
     transform="matrix(1,0,0,-1,-153.55771,563.79419)">
    <path
       inkscape:connector-curvature="0"
       d="m 300.672,550.008 c 59.4,0 107.784,-48.384 107.784,-107.712 0,-59.328 -48.384,-107.712 -107.784,-107.712 l 0,-5.4 5.616,-4.32 8.784,9.216 9.504,-6.696 6.048,10.656 12.312,-7.632 4.104,10.656 11.376,-4.896 0.216,13.68 12.312,-4.824 2.088,11.304 9.504,0 0,11.376 9.504,0.936 -0.72,12.24 11.808,2.088 -3.24,11.376 9.288,0.648 -5.112,9.504 9.936,2.808 -6.048,8.784 8.352,2.808 -7.128,8.28 7.848,5.976 -7.848,7.632 8.064,6.048 -6.264,6.048 8.352,5.328 -10.44,5.544 8.352,7.848 -11.808,5.112 7.2,8.352 -12.312,3.24 3.024,9.288 -9.288,3.456 4.464,9.936 -13.68,-0.648 0.648,12.96 -12.024,-1.656 0.504,11.808 -10.656,-3.024 -2.088,11.808 -11.592,-3.672 -0.936,9.288 -13.68,-3.528 -4.176,11.376 -12.024,-6.912 -4.392,10.152 -11.592,-8.568 -2.16,2.808 0,-3.168 z m 0,-215.424 c -59.256,0 -107.64,48.384 -107.64,107.712 0,59.328 48.384,107.712 107.64,107.712 l 0,3.168 -3.816,5.04 -7.128,-8.568 -10.008,7.92 -7.632,-11.16 -5.544,6.48 -5.832,-9.72 -10.872,4.392 -1.8,-10.872 -10.224,3.744 -1.152,-10.44 -10.872,0.936 -1.152,-10.872 -9.72,1.8 -0.504,-13.176 -11.808,-0.216 3.456,-12.312 -9,-0.432 2.304,-11.592 -8.352,-2.808 4.392,-8.568 -6.264,-1.8 4.68,-7.92 -8.352,-2.52 7.848,-8.136 -10.368,-6.48 9.72,-6.912 -8.136,-5.112 8.352,-5.112 -6.984,-7.848 8.352,-4.32 -6.696,-6.768 10.872,-1.584 -6.48,-9.072 10.44,-2.736 -4.68,-10.008 10.656,-1.152 -3.672,-10.368 11.808,-1.872 -4.176,-8.352 13.896,-1.368 0,-13.248 10.656,4.176 -0.216,-11.304 14.328,2.736 -0.864,-10.656 12.96,3.24 6.48,-9.72 9.504,5.112 7.416,-8.352 10.656,6.696 3.528,-2.808 0,5.4 z"
       id="path19"
       style="fill:#ff0000;fill-rule:evenodd" />
    <path
       inkscape:connector-curvature="0"
       d="m 301.104,549.576 c 59.328,0 107.712,-48.384 107.712,-107.712 0,-59.256 -48.384,-107.64 -107.712,-107.64 -59.256,0 -107.64,48.384 -107.64,107.64 0,59.328 48.384,107.712 107.64,107.712 z"
       id="path21"
       style="fill:#ffffff" />
    <path
       inkscape:connector-curvature="0"
       d="m 405.36,441.864 c 0,-32.616 -15.264,-61.848 -38.952,-81 l 0,6.408 c 20.808,18.216 33.984,45 33.984,74.592 0,29.664 -13.176,56.376 -33.984,74.592 l 0,6.48 c 23.688,-19.152 38.952,-48.456 38.952,-81.072 l 0,0 z m -38.952,-32.832 c 0.072,1.152 0.36,2.376 1.224,3.528 2.016,2.592 4.464,5.616 1.728,8.496 1.872,8.28 2.88,12.384 4.824,20.664 -0.576,0.216 -0.936,0.36 -1.512,0.576 -1.944,-8.136 -2.952,-12.168 -4.896,-20.952 -0.504,-0.144 -1.008,-0.36 -1.368,-0.504 l 0,-1.296 c 1.728,0.576 4.752,0.432 2.52,-2.88 -0.864,-1.44 -1.728,-2.88 -2.52,-4.248 l 0,-3.384 0,0 z m 0,33.264 c 0.864,0 1.512,0.72 1.512,1.584 0,0.792 -0.648,1.512 -1.512,1.584 l 0,-3.168 0,0 z m 0,36.72 c 1.8,1.152 3.672,2.52 5.688,3.96 2.592,1.944 6.336,6.048 -3.168,4.896 -0.864,-0.072 -1.728,-0.216 -2.52,-0.288 l 0,-8.568 z m 0,-118.152 c -0.792,-0.648 -1.584,-1.224 -2.376,-1.872 l 0,6.336 c 0.792,0.576 1.584,1.296 2.376,1.944 l 0,-6.408 0,0 z m -2.376,163.872 c 0.792,-0.576 1.584,-1.152 2.376,-1.8 l 0,-6.48 c -0.792,0.72 -1.584,1.368 -2.376,2.016 l 0,6.264 0,0 z m 2.376,-37.152 0,-8.568 c -0.792,-0.504 -1.584,-1.008 -2.376,-1.44 l 0,9.72 c 0.792,0.072 1.584,0.216 2.376,0.288 l 0,0 z m 0,-42.12 0,-3.168 -0.072,0 c -0.792,0 -1.512,0.648 -1.512,1.584 0,0.792 0.72,1.584 1.512,1.584 l 0.072,0 0,0 z m 0,-24.624 0,-1.296 c -0.432,-0.144 -0.792,-0.288 -0.936,-0.432 -0.576,-0.432 -1.008,-0.792 -1.44,-1.224 l 0,1.368 c 0.72,0.648 1.44,1.152 2.376,1.584 l 0,0 z m 0,-8.424 0,-3.384 c -0.288,-1.944 -0.144,-3.888 -2.376,-5.04 l 0,4.752 c 0.864,1.224 1.584,2.448 2.376,3.672 l 0,0 z m -2.376,24.192 0,2.16 c 0.648,0 1.08,-0.504 1.08,-1.08 0,-0.576 -0.432,-1.008 -1.08,-1.08 z m 0,-77.616 c -0.576,-0.432 -1.224,-0.936 -1.8,-1.368 l 0,6.192 c 0.576,0.504 1.224,1.008 1.8,1.512 l 0,-6.336 0,0 z m -1.8,167.184 c 0.576,-0.504 1.224,-0.936 1.8,-1.44 l 0,-6.264 c -0.576,0.504 -1.224,1.008 -1.8,1.512 l 0,6.192 0,0 z m 1.8,-38.88 0,-9.72 c -0.576,-0.36 -1.224,-0.72 -1.8,-1.08 l 0,10.584 c 0.576,0.072 1.224,0.144 1.8,0.216 l 0,0 z m 0,-48.528 0,-2.16 0,0 c -0.576,0 -1.08,0.504 -1.08,1.08 0,0.576 0.504,1.08 1.08,1.08 l 0,0 0,0 z m 0,-19.512 0,-1.368 c -0.648,-0.72 -1.296,-1.368 -1.8,-2.16 l 0,1.44 c 0.576,0.864 1.224,1.512 1.8,2.088 l 0,0 z m 0,-10.512 0,-4.752 c 0,-0.072 -0.072,-0.072 -0.144,-0.144 -1.512,-0.72 -1.944,-2.808 -1.368,-4.32 0.576,-1.44 0.36,-2.664 -0.288,-3.888 l 0,10.512 c 0.648,0.864 1.224,1.728 1.8,2.592 l 0,0 z m -1.8,18.36 0,2.16 0,0 c 0.504,0 1.08,-0.504 1.08,-1.152 0,-0.504 -0.576,-1.008 -1.08,-1.008 l 0,0 z m 0,-69.48 c -1.512,-1.08 -3.024,-2.088 -4.536,-3.096 l 0,5.976 c 1.584,1.08 3.024,2.16 4.536,3.312 l 0,-6.192 0,0 z m -4.536,171.648 c 1.512,-1.008 3.024,-2.016 4.536,-3.096 l 0,-6.192 c -1.512,1.152 -2.952,2.232 -4.536,3.312 l 0,5.976 0,0 z m 4.536,-42.192 0,-10.584 c -1.512,-0.864 -3.024,-1.656 -4.536,-2.376 l 0,12.384 c 1.512,0.144 2.952,0.36 4.536,0.576 l 0,0 z m 0,-57.816 0,-2.16 c -0.648,0 -1.08,0.504 -1.08,1.008 0,0.576 0.432,1.08 1.08,1.152 l 0,0 z m 0,-12.096 0,-1.44 c -0.72,-0.864 -1.368,-1.8 -2.16,-2.88 -0.648,-0.864 -1.44,-1.584 -2.376,-2.232 l 0,1.368 c 1.224,1.008 2.304,2.232 3.24,3.6 0.504,0.576 0.864,1.152 1.296,1.584 l 0,0 z m 0,-11.016 0,-10.512 c -0.288,-0.432 -0.576,-0.864 -0.936,-1.296 -1.224,-1.512 -2.016,-4.032 -1.512,-6.12 0.504,-2.448 -0.648,-3.96 -2.088,-4.896 l 0,2.448 c 0.504,1.008 0.432,2.304 0.072,3.744 l -0.072,0.144 0,12.168 c 1.8,1.296 3.24,2.808 4.536,4.32 l 0,0 z m -4.536,11.448 0,2.448 c 0.576,-0.144 0.936,-0.576 0.936,-1.152 0,-0.648 -0.36,-1.152 -0.936,-1.296 l 0,0 z m 0,5.544 0,2.304 c 0.144,0 0.36,0.072 0.504,0.072 0.648,0 1.224,-0.504 1.224,-1.224 0,-0.648 -0.576,-1.224 -1.224,-1.224 -0.144,0 -0.36,0 -0.504,0.072 l 0,0 z m 0,6.912 0,2.664 c 0.144,0 0.216,0 0.36,0 0.72,0 1.368,-0.576 1.368,-1.368 0,-0.792 -0.648,-1.368 -1.368,-1.368 -0.144,0 -0.216,0 -0.36,0.072 l 0,0 z m 0,7.272 0,1.368 c 0.216,0.216 0.504,0.432 0.792,0.432 0.648,0 1.152,-0.576 1.152,-1.152 0,-0.504 -0.504,-1.008 -1.152,-1.008 -0.288,0 -0.576,0.144 -0.792,0.36 l 0,0 z m 0,4.824 0,3.096 0.072,0 c 0.792,0 1.512,-0.72 1.512,-1.512 0,-0.936 -0.72,-1.584 -1.512,-1.584 l -0.072,0 z m 0,-87.624 c -1.656,-1.08 -3.456,-2.16 -5.184,-3.168 l 0,16.56 c 1.368,-2.304 3.024,-4.608 4.752,-7.776 0.144,0.144 0.288,0.216 0.432,0.36 l 0,-5.976 0,0 z m -5.184,177.912 c 1.728,-1.008 3.528,-2.088 5.184,-3.168 l 0,-5.976 c -1.656,1.152 -3.384,2.304 -5.184,3.384 l 0,5.76 0,0 z m 5.184,-45.936 0,-12.384 c -1.728,-0.792 -3.456,-1.584 -5.184,-2.304 l 0,13.824 c 1.728,0.288 3.456,0.576 5.184,0.864 l 0,0 z m 0,-41.256 0,-3.096 c -0.864,0 -1.512,0.72 -1.512,1.584 0,0.792 0.648,1.44 1.512,1.512 l 0,0 z m 0,-6.552 0,-1.368 c -0.144,0.144 -0.216,0.432 -0.216,0.648 0,0.288 0.072,0.576 0.216,0.72 l 0,0 z m 0,-5.976 0,-2.664 c -0.648,0.144 -1.08,0.648 -1.08,1.296 0,0.72 0.432,1.224 1.08,1.368 l 0,0 z m 0,-7.272 0,-2.304 c -0.432,0.216 -0.72,0.648 -0.72,1.152 0,0.504 0.288,0.936 0.72,1.152 l 0,0 z m 0,-5.4 0,-2.448 c -0.072,0 -0.144,0 -0.216,0 -0.792,0 -1.296,0.504 -1.296,1.296 0,0.648 0.504,1.152 1.296,1.152 0.072,0 0.144,0 0.216,0 l 0,0 z m 0,-8.064 0,-1.368 c -0.864,-0.72 -1.8,-1.368 -2.88,-2.232 -0.792,-0.36 -1.584,-0.576 -2.304,-0.864 l 0,0.864 c 1.944,0.936 3.672,2.088 5.184,3.6 l 0,0 z m 0,-10.152 0,-12.168 c -0.648,2.592 -1.944,3.672 -3.384,6.048 -1.08,2.088 0.288,4.032 1.728,4.968 0.576,0.36 1.152,0.72 1.656,1.152 l 0,0 z m 0,-16.056 0,-2.448 c -0.144,-0.072 -0.36,-0.216 -0.576,-0.36 -1.872,-1.008 -3.24,-1.584 -4.608,-2.088 l 0,1.944 c 1.08,0.36 2.16,0.792 3.24,1.224 1.008,0.36 1.656,0.936 1.944,1.728 l 0,0 z m -5.184,28.584 0,1.296 c 0.144,0.144 0.36,0.216 0.648,0.216 0.504,0 0.864,-0.36 0.864,-0.864 0,-0.504 -0.36,-0.936 -0.864,-0.936 -0.288,0 -0.504,0.144 -0.648,0.288 l 0,0 z m 0,6.336 0,2.664 0,0 c 0.792,0 1.368,-0.576 1.368,-1.368 0,-0.792 -0.576,-1.296 -1.368,-1.296 l 0,0 0,0 z m 0,5.616 0,2.088 c 0.288,0.288 0.648,0.504 1.08,0.504 0.792,0 1.584,-0.72 1.584,-1.512 0,-0.936 -0.792,-1.584 -1.584,-1.584 -0.432,0 -0.792,0.216 -1.08,0.504 l 0,0 z m 0,11.808 0,1.872 0,0 c 0.504,0 0.936,-0.36 0.936,-0.864 0,-0.576 -0.432,-1.008 -0.936,-1.008 l 0,0 z m 0,-86.76 c -0.432,-0.216 -0.864,-0.504 -1.224,-0.72 l 0,19.368 c 0.36,-0.72 0.792,-1.368 1.224,-2.088 l 0,-16.56 0,0 z m -1.224,181.728 c 0.36,-0.216 0.792,-0.432 1.224,-0.648 l 0,-5.76 c -0.432,0.216 -0.864,0.504 -1.224,0.72 l 0,5.688 0,0 z m 1.224,-47.448 0,-13.824 c -0.432,-0.144 -0.864,-0.288 -1.224,-0.432 l 0,14.112 c 0.36,0.072 0.792,0.072 1.224,0.144 l 0,0 z m 0,-45.648 0,-1.872 c -0.504,0 -0.936,0.432 -0.936,1.008 0,0.504 0.432,0.864 0.936,0.864 l 0,0 z m 0,-11.592 0,-2.088 c -0.288,0.288 -0.432,0.648 -0.432,1.08 0,0.36 0.144,0.72 0.432,1.008 l 0,0 z m 0,-5.04 0,-2.664 c -0.504,0 -1.008,0.216 -1.224,0.648 l 0,1.224 c 0.216,0.504 0.72,0.792 1.224,0.792 l 0,0 z m 0,-7.704 0,-1.296 c -0.144,0.144 -0.288,0.36 -0.288,0.648 0,0.216 0.144,0.504 0.288,0.648 l 0,0 z m 0,-7.272 0,-0.864 -1.224,-0.432 0,0.72 c 0.432,0.216 0.792,0.36 1.224,0.576 l 0,0 z m 0,-25.56 0,-1.944 c -0.432,-0.144 -0.792,-0.288 -1.224,-0.432 l 0,1.944 c 0.36,0.144 0.792,0.288 1.224,0.432 l 0,0 z m -1.224,48.24 0,2.16 c 0.576,0 1.008,-0.504 1.008,-1.08 0,-0.576 -0.432,-1.08 -1.008,-1.08 z m 0,-80.424 c -7.704,-4.248 -15.984,-7.56 -24.696,-9.72 l 0,27.144 c 1.368,2.16 2.088,3.6 3.744,5.832 1.368,1.872 2.448,4.536 5.976,4.896 5.76,0.576 10.512,2.016 14.976,3.6 l 0,-1.944 c -1.08,-0.36 -2.16,-0.72 -3.528,-1.224 0.864,-3.888 2.088,-6.696 3.528,-9.216 l 0,-19.368 0,0 z m -24.696,192.24 c 8.712,-2.16 16.992,-5.472 24.696,-9.792 l 0,-5.688 c -7.632,4.536 -15.912,7.992 -24.696,10.368 l 0,5.112 0,0 z m 24.696,-57.384 0,-14.112 c -6.912,-2.664 -14.256,-4.464 -23.616,-6.912 3.96,-7.704 2.232,-14.4 -1.08,-16.704 l 0,5.328 c 0.216,0.432 0.288,0.864 0.36,1.368 0.216,2.016 0.288,3.744 -0.36,5.256 l 0,19.44 c 0.36,0.144 0.72,0.288 1.08,0.36 9.36,3.024 16.344,4.68 23.616,5.976 l 0,0 z m 0,-52.272 0,-2.16 c -0.648,0 -1.08,0.504 -1.08,1.08 0,0.576 0.432,1.08 1.08,1.08 l 0,0 z m 0,-10.656 0,-1.224 c -0.144,0.216 -0.144,0.432 -0.144,0.648 0,0.216 0,0.432 0.144,0.576 l 0,0 z m 0,-14.76 c -2.088,-0.864 -4.32,-1.44 -6.84,-1.8 0.216,4.392 0.792,13.032 3.168,36.432 l -0.792,0.144 c -1.512,-11.088 -2.16,-16.632 -3.672,-27.576 -5.472,-5.112 -8.136,-7.632 -13.608,-12.6 -1.008,1.368 -2.016,2.808 -2.952,4.104 l 0,-10.44 2.664,3.6 c 1.224,1.728 1.728,2.664 3.24,4.032 3.672,3.528 5.472,5.328 9.216,8.856 0.648,0.576 2.088,-0.072 2.016,-1.008 -0.216,-2.088 -0.36,-3.168 -0.576,-5.328 -0.144,-0.936 -1.224,-0.576 -2.016,-0.936 -0.576,-0.288 0,-1.8 0.576,-1.584 3.888,1.44 6.336,2.304 9.576,3.384 l 0,0.72 0,0 z m -24.696,78.552 0,3.456 c 5.544,0.216 9.36,0.36 15.84,0.504 -5.544,-1.44 -10.8,-2.736 -15.84,-3.96 z m 0,-145.44 c -8.136,-2.088 -16.704,-3.24 -25.56,-3.24 -4.752,0 -9.576,0.36 -14.256,1.008 l 0,115.848 c 0.576,0.288 1.08,0.792 1.44,1.368 0.648,0.864 1.368,2.736 0.144,2.736 -0.648,0 -1.152,-0.216 -1.584,-0.648 l 0,14.472 c 12.528,0.144 24.552,1.944 39.816,6.696 l 0,-19.44 c -0.288,0.792 -0.792,1.512 -1.512,2.304 -1.512,-2.16 -3.024,-4.824 -5.256,-4.824 -0.144,-2.16 -0.072,-4.104 1.008,-6.336 0.936,-1.944 4.608,-0.576 5.76,2.232 l 0,-5.328 c -2.664,-1.872 -6.336,-0.864 -9.072,4.68 -1.368,3.024 -1.152,5.76 0.504,8.208 2.016,2.88 0.216,5.544 -1.224,7.848 -0.792,1.224 -2.376,2.304 -4.176,1.152 -6.192,-3.6 -12.6,-3.888 -15.336,0.36 -1.296,2.16 -4.392,2.52 -4.896,-0.936 -0.648,-3.816 -0.288,-6.768 -1.296,-10.152 -0.576,-2.16 -0.144,-3.744 1.872,-2.736 1.152,0.216 1.656,0.36 2.808,0.576 -0.792,-1.584 -0.792,-2.88 -0.504,-4.464 5.04,0.288 8.64,0.432 13.68,0.432 -2.016,-3.672 -6.336,-5.976 -7.344,-2.448 -3.528,0.36 -5.832,0.144 -8.64,0.936 -1.296,-1.224 -2.016,-1.8 -3.024,-2.88 -1.44,-2.16 4.752,-1.872 8.928,-1.728 1.008,-3.24 -7.776,-2.304 -11.088,-1.08 -2.304,-5.832 1.152,-11.88 9.504,-11.52 0.72,-3.168 1.08,-4.824 1.8,-8.208 0.72,-3.24 4.752,-2.952 4.968,0.792 0.072,2.592 0.144,3.888 0.288,6.48 0.072,2.016 0.576,3.456 1.8,4.32 2.952,2.016 3.096,9.36 6.192,9.504 -2.16,-6.768 -3.384,-10.44 -5.904,-17.784 7.848,-6.12 13.32,-13.104 20.16,-22.608 l 0,-10.44 c -1.944,-2.664 -3.528,-4.824 -5.976,-8.136 -0.432,-7.272 0,-12.168 0.792,-19.728 0.288,-3.312 2.808,-3.96 4.824,-0.792 0.144,0.216 0.216,0.432 0.36,0.648 l 0,-27.144 0,0 z m -39.816,204.192 c 4.68,0.648 9.504,1.008 14.256,1.008 8.856,0 17.424,-1.152 25.56,-3.24 l 0,-5.112 c -5.544,1.44 -11.304,2.448 -17.208,2.952 6.192,-18.648 8.712,-30.312 13.104,-51.048 l 4.104,0.144 0,-3.456 c -13.104,-3.024 -25.056,-5.04 -39.816,-5.4 l 0,64.152 z m 0,-206.424 c -0.72,0.144 -1.44,0.216 -2.16,0.36 l 0,115.056 c 0.072,-0.072 0.216,-0.072 0.36,-0.072 0.648,0 1.224,0.144 1.8,0.504 l 0,-115.848 0,0 z m -2.16,206.064 c 0.72,0.144 1.44,0.216 2.16,0.36 l 0,-64.152 c -0.72,0 -1.44,0 -2.16,-0.072 l 0,63.864 0,0 z m 2.16,-72.288 0,-14.472 c -0.36,-0.36 -0.72,-0.864 -1.152,-1.512 -0.36,-0.432 -0.792,-1.08 -1.008,-1.656 l 0,9.72 c 0,0.072 0.072,0.072 0.072,0.072 l -0.072,0.072 0,7.776 c 0.72,0 1.44,0 2.16,0 z m -2.16,-133.416 c -1.728,0.288 -3.456,0.576 -5.184,0.936 l 0,116.496 c 1.512,-0.576 2.52,-0.576 3.6,1.872 1.008,2.448 -1.008,5.184 1.584,6.192 l 0,-9.72 c -0.144,-0.288 -0.144,-0.576 0,-0.72 l 0,-115.056 0,0 z m -5.184,204.768 c 1.728,0.36 3.456,0.648 5.184,0.936 l 0,-63.864 c -1.728,0 -3.456,0 -5.184,0 l 0,62.928 0,0 z m 5.184,-71.352 0,-7.776 c -1.872,1.224 -2.448,2.736 -4.68,3.024 -0.144,0.072 -0.36,0.072 -0.504,0.072 l 0,4.752 c 1.728,-0.072 3.456,-0.072 5.184,-0.072 z m -5.184,-132.48 c -1.152,0.288 -2.304,0.504 -3.384,0.792 l 0,95.4 c 0.864,0.864 1.368,2.016 1.584,3.096 0.72,3.888 0.072,6.984 -1.584,9.936 l 0,10.008 c 0.72,-1.152 1.584,-1.944 3.096,-2.592 0.072,-0.072 0.144,-0.072 0.288,-0.144 l 0,-116.496 0,0 z m -3.384,203.04 c 1.08,0.288 2.232,0.504 3.384,0.792 l 0,-62.928 c -1.152,0 -2.232,0.072 -3.384,0.072 l 0,62.064 0,0 z m 3.384,-70.488 0,-4.752 c -1.368,0.144 -2.52,-0.144 -3.384,-0.576 l 0,5.472 c 1.08,-0.072 2.232,-0.072 3.384,-0.144 z m -3.384,-131.76 c -3.672,0.936 -7.2,2.016 -10.656,3.24 l 0,92.88 c 2.232,0.648 4.392,-0.144 6.048,-1.08 1.944,-1.08 3.528,-0.648 4.608,0.36 l 0,-95.4 0,0 z m -10.656,198.936 c 3.456,1.296 6.984,2.376 10.656,3.312 l 0,-62.064 c -1.512,0 -3.024,0.072 -4.608,0.144 -2.304,-0.792 -4.248,-1.512 -6.048,-2.088 l 0,4.824 c 1.656,0.288 3.384,0.576 5.112,0.936 -0.576,21.096 1.08,32.976 3.888,52.56 -3.024,-0.864 -6.048,-1.872 -9,-2.952 l 0,5.328 0,0 z m 10.656,-67.032 0,-5.472 c -1.944,-1.08 -2.592,-3.384 -1.008,-6.264 0.288,-0.648 0.648,-1.224 1.008,-1.728 l 0,-10.008 c -0.504,0.72 -1.008,1.44 -1.584,2.232 -2.232,-8.208 -6.192,-9.432 -9.072,-7.56 l 0,2.448 c 1.08,-1.152 2.736,-1.44 3.888,-0.36 1.872,1.872 2.448,3.888 3.096,6.48 -1.656,1.152 -3.096,2.736 -4.968,3.744 -0.864,-0.792 -1.512,-1.584 -2.016,-2.448 l 0,3.816 c 0.432,0.36 0.936,0.72 1.44,1.08 -0.216,1.944 -0.432,2.88 -0.648,4.896 l -0.792,0.072 0,9.864 c 3.744,-0.36 7.2,-0.576 10.656,-0.792 z M 265.392,344.016 c -9.144,3.384 -17.712,8.064 -25.56,13.752 l 0,61.272 0.864,0.864 c 5.544,5.616 10.512,5.04 14.76,8.856 3.672,3.384 4.68,4.536 7.992,7.056 0.648,0.504 1.296,0.864 1.944,1.08 l 0,-92.88 0,0 z m -25.56,182.016 c 7.848,5.688 16.416,10.368 25.56,13.68 l 0,-5.328 c -9.216,-3.6 -17.856,-8.568 -25.56,-14.616 l 0,6.264 0,0 z m 25.56,-42.192 0,-4.824 c -3.96,-1.44 -7.344,-2.592 -12.456,-4.32 4.392,-0.504 8.568,-0.864 12.456,-1.224 l 0,-9.864 c -9.504,0.504 -17.568,0.648 -25.56,1.368 l 0,13.824 c 8.064,1.872 15.408,3.168 25.56,5.04 l 0,0 z m 0,-26.28 0,-3.816 c -1.44,-2.376 -1.368,-4.752 -0.504,-6.48 0.144,-0.36 0.288,-0.648 0.504,-0.936 l 0,-2.448 c -3.384,2.232 -5.112,9.144 0,13.68 z m -25.56,-99.792 c -25.992,19.008 -42.912,49.68 -42.912,84.096 0,34.488 16.92,65.16 42.912,84.168 l 0,-6.264 c -23.112,-18.216 -38.016,-46.44 -38.016,-77.904 0,-17.928 4.824,-34.704 13.392,-49.248 9.576,10.296 14.688,16.2 24.624,26.424 l 0,-61.272 0,0 z m 0,121.032 c -4.608,-1.08 -9.504,-2.304 -15.336,-4.032 -7.992,-2.304 -9,-5.256 -2.304,-6.912 6.12,-1.584 11.88,-2.376 17.64,-2.88 l 0,13.824 z"
       id="path23"
       style="fill:#0032fc;fill-rule:evenodd" />
    <path
       inkscape:connector-curvature="0"
       d="m 300.816,334.008 c 59.616,0 108.216,48.6 108.216,108.072 0,59.616 -48.6,108.216 -108.216,108.216 -59.472,0 -108.072,-48.6 -108.072,-108.216 0,-59.472 48.6,-108.072 108.072,-108.072 z"
       id="path25"
       style="fill:none;stroke:#000000;stroke-width:0.21600001" />
  </g>
  <path
     inkscape:connector-curvature="0"
     d="m 264.74698,238.4526 0.1002,0 c 0.26718,0 0.50094,0 0.63453,0.0334 0.13358,0.0334 0.23378,0.0668 0.33396,0.13359 0.20037,0.10019 0.33397,0.23377 0.40076,0.40075 0.13358,0.20038 0.16698,0.43415 0.16698,0.66792 0,0.23378 -0.0334,0.40076 -0.16698,0.56774 -0.0668,0.20038 -0.23378,0.30056 -0.43415,0.40075 0.16698,0.0668 0.30056,0.13359 0.36736,0.26718 0.0668,0.0667 0.1002,0.30055 0.13358,0.56773 l 0.0667,0.70132 c 0,0.13358 0.0334,0.26717 0.0334,0.36735 0.0334,0.0334 0.0668,0.1002 0.13359,0.13359 l 0,0.10019 -0.66794,0 c -0.0668,-0.0668 -0.10019,-0.23377 -0.13357,-0.53433 l 0,-0.0334 -0.0334,-0.56774 c -0.0334,-0.30056 -0.0668,-0.46755 -0.16699,-0.56773 -0.1002,-0.0668 -0.36735,-0.13359 -0.76811,-0.13359 l 0,-0.50093 0.0334,0 c 0.33397,0 0.60114,-0.0668 0.76811,-0.20038 0.13359,-0.1002 0.23378,-0.26717 0.23378,-0.56774 0,-0.26717 -0.1002,-0.46755 -0.23378,-0.53434 -0.13359,-0.13358 -0.40075,-0.20038 -0.76811,-0.20038 l -0.0334,0 0,-0.50093 0,0 z m 0,5.67734 c 1.83678,0 3.3396,-1.50282 3.3396,-3.37301 0,-1.83678 -1.50282,-3.3396 -3.3396,-3.3396 l 0,0.40074 c 1.63641,0.0334 2.93886,1.33585 2.93886,2.93886 0,1.66982 -1.30245,2.97226 -2.93886,3.00566 l 0,0.36735 z m -1.56962,-5.67734 1.56962,0 0,0.50094 -1.00189,0 0,1.50284 1.00189,0 0,0.50093 -0.0334,0 -0.93509,0 0,1.83679 -0.60113,0 0,-4.3415 0,0 z m 1.56962,-1.03527 -0.0334,0 c -1.87018,0 -3.37301,1.50282 -3.37301,3.3396 0,1.87019 1.50283,3.37301 3.37301,3.37301 l 0.0334,0 0,-0.36735 -0.0334,0 c -1.63641,0 -2.97225,-1.33584 -2.97225,-3.00566 0,-1.60301 1.33584,-2.93886 2.97225,-2.93886 l 0.0334,0 0,-0.40074 z"
     id="path43"
     style="fill:#0032fc;fill-rule:evenodd" />
</svg>
